<svg width="61" height="60" viewBox="0 0 61 60" fill="none" xmlns="http://www.w3.org/2000/svg">
<path fill-rule="evenodd" clip-rule="evenodd" d="M52.375 17.5C52.375 17.9973 52.1775 18.4742 51.8258 18.8258C51.4742 19.1775 50.9973 19.375 50.5 19.375H10.5C10.0027 19.375 9.52581 19.1775 9.17417 18.8258C8.82254 18.4742 8.625 17.9973 8.625 17.5C8.625 17.0027 8.82254 16.5258 9.17417 16.1742C9.52581 15.8225 10.0027 15.625 10.5 15.625H50.5C50.9973 15.625 51.4742 15.8225 51.8258 16.1742C52.1775 16.5258 52.375 17.0027 52.375 17.5ZM52.375 30C52.375 30.4973 52.1775 30.9742 51.8258 31.3258C51.4742 31.6775 50.9973 31.875 50.5 31.875H10.5C10.0027 31.875 9.52581 31.6775 9.17417 31.3258C8.82254 30.9742 8.625 30.4973 8.625 30C8.625 29.5027 8.82254 29.0258 9.17417 28.6742C9.52581 28.3225 10.0027 28.125 10.5 28.125H50.5C50.9973 28.125 51.4742 28.3225 51.8258 28.6742C52.1775 29.0258 52.375 29.5027 52.375 30ZM52.375 42.5C52.375 42.9973 52.1775 43.4742 51.8258 43.8258C51.4742 44.1775 50.9973 44.375 50.5 44.375H10.5C10.0027 44.375 9.52581 44.1775 9.17417 43.8258C8.82254 43.4742 8.625 42.9973 8.625 42.5C8.625 42.0027 8.82254 41.5258 9.17417 41.1742C9.52581 40.8225 10.0027 40.625 10.5 40.625H50.5C50.9973 40.625 51.4742 40.8225 51.8258 41.1742C52.1775 41.5258 52.375 42.0027 52.375 42.5Z" fill="white"/>
</svg>
