<svg width="60" height="60" viewBox="0 0 60 60" fill="none" xmlns="http://www.w3.org/2000/svg">
<g clip-path="url(#clip0_9_22)">
<rect width="49" height="49" transform="translate(5 5)" fill="none"/>
<path fill-rule="evenodd" clip-rule="evenodd" d="M29.5 5C36.267 5 42.392 7.74349 46.8223 12.1777C51.2565 16.612 54 22.737 54 29.5C54 36.267 51.2565 42.392 46.8223 46.8223C42.388 51.2565 36.263 54 29.5 54C22.737 54 16.608 51.2565 12.1777 46.8223C7.74349 42.392 5 36.267 5 29.5C5 22.733 7.74349 16.608 12.1777 12.1777C16.608 7.74349 22.733 5 29.5 5ZM35.6449 51.6872L35.5971 51.6553L38.3446 42.4478L32.6781 36.1633L25.9989 36.1035L20.7033 42.731L23.3591 51.6313L23.2992 51.6712C25.2731 52.2215 27.3507 52.5166 29.5 52.5166C31.6294 52.5166 33.691 52.2295 35.6449 51.6872ZM9.87288 41.5307L19.5788 41.5785L24.651 35.2262L22.5535 28.7982L14.012 25.0897L6.50732 30.5527C6.68677 34.5643 7.89502 38.3087 9.87288 41.5307ZM11.6873 14.9212L14.6381 23.7498L22.6054 27.2111L28.7623 22.4379V13.3501L21.1539 8.04256C18.1552 9.21094 15.4596 10.9894 13.2225 13.2265C12.6842 13.7648 12.1698 14.3311 11.6873 14.9212ZM37.5789 7.93888L30.2417 13.2823V22.4259L36.0238 26.8961L44.322 23.3391L47.1851 14.7697C46.7385 14.2314 46.268 13.717 45.7735 13.2225C43.4727 10.9216 40.6853 9.10327 37.5789 7.93888ZM52.4887 30.6644L52.4807 30.6684L44.5134 24.8664L36.6139 28.2519L34.1895 35.4416L39.6645 41.5147C39.6884 41.5387 39.7004 41.5666 39.7083 41.5985L49.1191 41.5546C51.0811 38.3565 52.2893 34.644 52.4887 30.6644Z" fill="#9747FF"/>
</g>
<defs>
<clipPath id="clip0_9_22">
<rect width="49" height="49" fill="white" transform="translate(5 5)"/>
</clipPath>
</defs>
</svg>
